# xmcd CD database file
#
# Track frame offsets:
#	150
#	8183
#	19382
#	28461
#	39020
#	49617
#	59998
#	72434
#	84933
#	97451
#	108699
#	119761
#	128677
#	138879
#	149517
#	161999
#	170510
#	182094
#	195409
#	205952
#	219840
#	233211
#	246723
#	255803
#	263460
#	275976
#	286055
#	296456
#	305992
#	317503
#	325631
#	333014
#	345687
#
# Disc length: 4775 seconds
#
# Revision: 3
# Processed by: cddbd v1.5.2PL0 Copyright (c) Steve Scherf et al.
# Submitted via: jetAudio 7
#
DISCID=0112a521
DTITLE=Chet Atkins - The Early Years 1946- 1957 [CD5]
DYEAR=1900
DGENRE=Country
TTITLE0=Minute Waltz
TTITLE1=Minuet
TTITLE2=Schön Rosmarin
TTITLE3=Tip-Toe Through The Tulips
TTITLE4=Arkansas Traveler
TTITLE5=Little Rock Getaway
TTITLE6=Ochi Chornya (Dark Eyes)
TTITLE7=Londonderry Air
TTITLE8=La Golondrina
TTITLE9=Black Mountain Rag
TTITLE10=Cecilia
TTITLE11=The Poor People Of Paris (Jean's Song)
TTITLE12=Honey
TTITLE13=The Lady Loves Me
TTITLE14=Memphis Blues
TTITLE15=Oh! By Jingo, Oh! By Gee! (You're The Only Girl For Me)
TTITLE16=Hello Ma Baby
TTITLE17=Indian Love Call
TTITLE18=Alice Blue Gown
TTITLE19=The Third Man Theme
TTITLE20=Blue Gypsy
TTITLE21=St. Louis Blues
TTITLE22=Dance Of The Golden Rod
TTITLE23=Gavotte In D
TTITLE24=Malagueña
TTITLE25=Glow Worm
TTITLE26=In The Mood
TTITLE27=Heartaches
TTITLE28=Swedish Rhapsody
TTITLE29=Waltz In A-Flat
TTITLE30=Adelita
TTITLE31=Petite Waltz
TTITLE32=Liza
EXTD=
EXTT0=
EXTT1=
EXTT2=
EXTT3=
EXTT4=
EXTT5=
EXTT6=
EXTT7=
EXTT8=
EXTT9=
EXTT10=
EXTT11=
EXTT12=
EXTT13=
EXTT14=
EXTT15=
EXTT16=
EXTT17=
EXTT18=
EXTT19=
EXTT20=
EXTT21=
EXTT22=
EXTT23=
EXTT24=
EXTT25=
EXTT26=
EXTT27=
EXTT28=
EXTT29=
EXTT30=
EXTT31=
EXTT32=
PLAYORDER=
